<svg xmlns="http://www.w3.org/2000/svg" viewBox="0 0 64 64">
  <defs><clipPath id="ball"><circle cx="32.0" cy="32.0" r="29.0"/></clipPath></defs>
  <circle cx="32.0" cy="32.0" r="29.0" fill="#f5f7f8"/>
  <g clip-path="url(#ball)">
    <path d="M32.00,21.50 L41.99,28.76 L38.17,40.49 L25.83,40.49 L22.01,28.76 Z" fill="#10151c"/>
    <path d="M32.00,11.00 L22.96,4.44 L26.42,-6.19 L37.58,-6.19 L41.04,4.44 Z" fill="#10151c"/>
    <path d="M51.97,25.51 L55.42,14.89 L66.59,14.89 L70.04,25.51 L61.01,32.07 Z" fill="#10151c"/>
    <path d="M44.34,48.99 L55.51,48.99 L58.96,59.61 L49.93,66.18 L40.89,59.61 Z" fill="#10151c"/>
    <path d="M19.66,48.99 L23.11,59.61 L14.07,66.18 L5.04,59.61 L8.49,48.99 Z" fill="#10151c"/>
    <path d="M12.03,25.51 L2.99,32.07 L-6.04,25.51 L-2.59,14.89 L8.58,14.89 Z" fill="#10151c"/>
    <line x1="32.00" y1="21.50" x2="32.00" y2="2.00" stroke="#10151c" stroke-width="2.4"/>
    <line x1="41.99" y1="28.76" x2="60.53" y2="22.73" stroke="#10151c" stroke-width="2.4"/>
    <line x1="38.17" y1="40.49" x2="49.63" y2="56.27" stroke="#10151c" stroke-width="2.4"/>
    <line x1="25.83" y1="40.49" x2="14.37" y2="56.27" stroke="#10151c" stroke-width="2.4"/>
    <line x1="22.01" y1="28.76" x2="3.47" y2="22.73" stroke="#10151c" stroke-width="2.4"/>
  </g>
  <circle cx="32.0" cy="32.0" r="29.0" fill="none" stroke="#10151c" stroke-width="3"/>
</svg>
